# xmcd
#
# Track frame offsets: 
#        187
#        15410
#        28865
#        46477
#        62440
#        78372
#        98265
#        125907
#        148547
#        161917
#        188917
#        202992
#        220950
#
# Disc length: 3109 seconds
#
# Revision: 0
# Processed by: cddbd v1.5PL3 Copyright (c) Steve Scherf et al.
# Submitted via: ExactAudioCopy v0.95a5
#
DISCID=af0c230d
DTITLE=Capercaillie - Voice of Capercaillie
DYEAR=1996
DGENRE=Celtic
TTITLE0=Soraidh Bhuam Gu Barraidh
TTITLE1=Fosgail An Dorus
TTITLE2=Fisherman's Dream
TTITLE3=Brenda Stubbert's Set
TTITLE4=Am Buachaille Ban
TTITLE5=My Laggan Love
TTITLE6=Puirt a Beul
TTITLE7=Both Sides the Tweed
TTITLE8=An Ribhinn Donn
TTITLE9=The Haggis
TTITLE10=Urnaigh A'Bhan-Thigreach
TTITLE11=Balindore
TTITLE12=Oh Mo Dhuthaich
EXTD=
EXTT0=
EXTT1=
EXTT2=
EXTT3=
EXTT4=
EXTT5=
EXTT6=
EXTT7=
EXTT8=
EXTT9=
EXTT10=
EXTT11=
EXTT12=
PLAYORDER=
